<svg viewBox="0 0 1300 590" xmlns="http://www.w3.org/2000/svg" font-family="-apple-system,Segoe UI,Helvetica,Arial,sans-serif">
<rect x="0" y="0" width="1300" height="590" fill="#ffffff"/>
<text x="650.0" y="32" text-anchor="middle" font-size="21" font-weight="700" fill="#0b3d6e">MetaLib feature model &#8212; features realized by <tspan font-family="monospace" font-size="19">#lang prompt-pattern</tspan></text>
<line x1="650" y1="98" x2="186" y2="152" stroke="#aab2bb" stroke-width="1.5"/>
<line x1="650" y1="98" x2="418" y2="152" stroke="#aab2bb" stroke-width="1.5"/>
<line x1="650" y1="98" x2="650" y2="152" stroke="#aab2bb" stroke-width="1.5"/>
<line x1="650" y1="98" x2="882" y2="152" stroke="#aab2bb" stroke-width="1.5"/>
<line x1="650" y1="98" x2="1114" y2="152" stroke="#aab2bb" stroke-width="1.5"/>
<path d="M 186 196 L 90 214 L 90 374" fill="none" stroke="#aab2bb" stroke-width="1.5"/>
<line x1="90" y1="258" x2="102" y2="258" stroke="#aab2bb" stroke-width="1.5"/>
<line x1="90" y1="316" x2="102" y2="316" stroke="#aab2bb" stroke-width="1.5"/>
<line x1="90" y1="374" x2="102" y2="374" stroke="#aab2bb" stroke-width="1.5"/>
<path d="M 418 196 L 322 214 L 322 432" fill="none" stroke="#aab2bb" stroke-width="1.5"/>
<line x1="322" y1="258" x2="334" y2="258" stroke="#aab2bb" stroke-width="1.5"/>
<line x1="322" y1="316" x2="334" y2="316" stroke="#aab2bb" stroke-width="1.5"/>
<line x1="322" y1="374" x2="334" y2="374" stroke="#aab2bb" stroke-width="1.5"/>
<line x1="322" y1="432" x2="334" y2="432" stroke="#aab2bb" stroke-width="1.5"/>
<path d="M 650 196 L 554 214 L 554 316" fill="none" stroke="#aab2bb" stroke-width="1.5"/>
<line x1="554" y1="258" x2="566" y2="258" stroke="#aab2bb" stroke-width="1.5"/>
<line x1="554" y1="316" x2="566" y2="316" stroke="#aab2bb" stroke-width="1.5"/>
<path d="M 882 196 L 786 214 L 786 316" fill="none" stroke="#aab2bb" stroke-width="1.5"/>
<line x1="786" y1="258" x2="798" y2="258" stroke="#aab2bb" stroke-width="1.5"/>
<line x1="786" y1="316" x2="798" y2="316" stroke="#aab2bb" stroke-width="1.5"/>
<path d="M 1114 196 L 1018 214 L 1018 258" fill="none" stroke="#aab2bb" stroke-width="1.5"/>
<line x1="1018" y1="258" x2="1030" y2="258" stroke="#aab2bb" stroke-width="1.5"/>
<rect x="535" y="58" width="230" height="40" rx="8" fill="#0b3d6e"/>
<text x="650" y="83" text-anchor="middle" font-size="17" font-weight="700" fill="#fff">DSL implementation</text>
<rect x="94" y="152" width="184" height="44" rx="6" fill="#1f5b96"/>
<text x="186" y="179" text-anchor="middle" font-size="14" font-weight="700" fill="#fff">Abstract syntax</text>
<rect x="326" y="152" width="184" height="44" rx="6" fill="#1f5b96"/>
<text x="418" y="179" text-anchor="middle" font-size="14" font-weight="700" fill="#fff">Concrete syntax</text>
<rect x="558" y="152" width="184" height="44" rx="6" fill="#1f5b96"/>
<text x="650" y="179" text-anchor="middle" font-size="14" font-weight="700" fill="#fff">Static semantics</text>
<rect x="790" y="152" width="184" height="44" rx="6" fill="#1f5b96"/>
<text x="882" y="179" text-anchor="middle" font-size="14" font-weight="700" fill="#fff">Translation semantics</text>
<rect x="1022" y="152" width="184" height="44" rx="6" fill="#1f5b96"/>
<text x="1114" y="179" text-anchor="middle" font-size="14" font-weight="700" fill="#fff">Dynamic semantics</text>
<rect x="102" y="236" width="174" height="44" rx="6" fill="#e8f1fb" stroke="#0b3d6e" stroke-width="2"/>
<text x="114" y="255" font-size="13.5" font-weight="700" fill="#0b3d6e">✓ AST</text>
<text x="114" y="272" font-size="10.5" fill="#3a6ea5">pattern · message structs</text>
<rect x="102" y="294" width="174" height="44" rx="6" fill="#ffffff" stroke="#c7ccd1" stroke-width="1.5" stroke-dasharray="4 3"/>
<text x="114" y="313" font-size="13.5" font-weight="600" fill="#9aa1a8">ASG</text>
<text x="114" y="330" font-size="10.5" fill="#9aa1a8">graph-based syntax</text>
<rect x="102" y="352" width="174" height="44" rx="6" fill="#ffffff" stroke="#c7ccd1" stroke-width="1.5" stroke-dasharray="4 3"/>
<text x="114" y="371" font-size="13.5" font-weight="600" fill="#9aa1a8">Serialization</text>
<text x="114" y="388" font-size="10.5" fill="#9aa1a8">interchange formats</text>
<rect x="334" y="236" width="174" height="44" rx="6" fill="#e8f1fb" stroke="#0b3d6e" stroke-width="2"/>
<text x="346" y="255" font-size="13.5" font-weight="700" fill="#0b3d6e">✓ Textual</text>
<text x="346" y="272" font-size="10.5" fill="#3a6ea5">s-expressions</text>
<rect x="334" y="294" width="174" height="44" rx="6" fill="#e8f1fb" stroke="#0b3d6e" stroke-width="2"/>
<text x="346" y="313" font-size="13.5" font-weight="700" fill="#0b3d6e">✓ Replacement</text>
<text x="346" y="330" font-size="10.5" fill="#3a6ea5">macro expansion</text>
<rect x="334" y="352" width="174" height="44" rx="6" fill="#ffffff" stroke="#c7ccd1" stroke-width="1.5" stroke-dasharray="4 3"/>
<text x="346" y="371" font-size="13.5" font-weight="600" fill="#9aa1a8">Graphical</text>
<text x="346" y="388" font-size="10.5" fill="#9aa1a8">visual syntax</text>
<rect x="334" y="410" width="174" height="44" rx="6" fill="#ffffff" stroke="#c7ccd1" stroke-width="1.5" stroke-dasharray="4 3"/>
<text x="346" y="429" font-size="13.5" font-weight="600" fill="#9aa1a8">Projectional</text>
<text x="346" y="446" font-size="10.5" fill="#9aa1a8">structure editor</text>
<rect x="566" y="236" width="174" height="44" rx="6" fill="#e8f1fb" stroke="#0b3d6e" stroke-width="2"/>
<text x="578" y="255" font-size="13.5" font-weight="700" fill="#0b3d6e">✓ Analysis</text>
<text x="578" y="272" font-size="10.5" fill="#3a6ea5">{slot} reference check</text>
<rect x="566" y="294" width="174" height="44" rx="6" fill="#e8f1fb" stroke="#0b3d6e" stroke-width="2"/>
<text x="578" y="313" font-size="13.5" font-weight="700" fill="#0b3d6e">✓ Piggyback</text>
<text x="578" y="330" font-size="10.5" fill="#3a6ea5">scoping via Racket</text>
<rect x="798" y="236" width="174" height="44" rx="6" fill="#e8f1fb" stroke="#0b3d6e" stroke-width="2"/>
<text x="810" y="255" font-size="13.5" font-weight="700" fill="#0b3d6e">✓ Staging</text>
<text x="810" y="272" font-size="10.5" fill="#3a6ea5">work at expansion time</text>
<rect x="798" y="294" width="174" height="44" rx="6" fill="#ffffff" stroke="#c7ccd1" stroke-width="1.5" stroke-dasharray="4 3"/>
<text x="810" y="313" font-size="13.5" font-weight="600" fill="#9aa1a8">Compilation</text>
<text x="810" y="330" font-size="10.5" fill="#9aa1a8">to another language</text>
<rect x="1030" y="236" width="174" height="44" rx="6" fill="#e8f1fb" stroke="#0b3d6e" stroke-width="2"/>
<text x="1042" y="255" font-size="13.5" font-weight="700" fill="#0b3d6e">✓ Interpretation</text>
<text x="1042" y="272" font-size="10.5" fill="#3a6ea5">render fills slots</text>
<rect x="70" y="520" width="26" height="18" rx="4" fill="#e8f1fb" stroke="#0b3d6e" stroke-width="2"/>
<text x="104" y="534" font-size="14" fill="#333">Realized by <tspan font-family="monospace">#lang prompt-pattern</tspan></text>
<rect x="430" y="520" width="26" height="18" rx="4" fill="#fff" stroke="#c7ccd1" stroke-width="1.5" stroke-dasharray="4 3"/>
<text x="464" y="534" font-size="14" fill="#333">Out of scope for this experiment</text>
</svg>